<svg xmlns="http://www.w3.org/2000/svg" viewBox="0 0 625.31 147.19"><path d="M101.25,0H146.5a6.34,6.34,0,0,1,6.34,6.34V51.86a6.34,6.34,0,0,1-6.34,6.34H101.25a6.34,6.34,0,0,1-6.34-6.34V6.34A6.34,6.34,0,0,1,101.25,0m3.48,48.37H143V9.83H104.73Z" transform="translate(0)" fill="#a1d635"/><path d="M223.49,85.37V38.32h.92c2.64,0,5.27,0,7.9,0,.45,0,.6.12.59.53s0,.66,0,1q0,30.64,0,61.29c0,.64-.21.76-.78.75-2.41,0-4.81,0-7.22,0a1.16,1.16,0,0,1-1.07-.53q-8.28-11.49-16.59-22.94L190.3,54.94l-.85-1.2c-.09.12-.17.17-.17.22q0,12.12.06,24.23c0,7.62,0,15.24,0,22.86,0,.65-.2.81-.82.8q-4,0-8,0c-.62,0-.82-.15-.82-.8q0-30.87,0-61.75c0-1,0-1,1-1,2.58,0,5.16,0,7.74,0a1.15,1.15,0,0,1,.8.38q6.76,9.26,13.48,18.54L215.69,75c2.43,3.34,4.84,6.68,7.26,10a3.91,3.91,0,0,0,.37.44l.17-.07" transform="translate(0)" fill="#404040"/><path d="M347.31,38.33h9.38c1.48,0,1.45,0,1.94,1.38,1.94,5.42,3.91,10.84,5.85,16.26,1.56,4.33,3.09,8.66,4.65,13,1.2,3.33,2.45,6.64,3.65,10,1.31,3.61,2.59,7.23,3.89,10.85,0,.06.08.1.19.22.46-1.25.89-2.45,1.33-3.64q2.49-6.84,5-13.68,3.06-8.44,6.14-16.89,2.46-6.77,4.95-13.52.58-1.61,1.14-3.21a1,1,0,0,1,1.11-.74c3.09,0,6.18,0,9.26,0l.49,0c-.2.6-.36,1.14-.57,1.66q-3,7.71-6,15.41l-5.19,13.34q-4.11,10.58-8.21,21.13c-1.52,3.91-3,7.82-4.59,11.72a.82.82,0,0,1-.62.43c-2.93,0-5.87,0-8.81,0a.63.63,0,0,1-.71-.48c-1.84-4.81-3.71-9.61-5.56-14.43q-3.5-9-7-18.1-3.13-8.17-6.29-16.34l-5.43-14.07a1.28,1.28,0,0,1,0-.28" transform="translate(0)" fill="#404040"/><path d="M253.44,80.82a16,16,0,0,0,2.95,7.92,13.93,13.93,0,0,0,10.37,6.14A13.77,13.77,0,0,0,279.08,90a22.39,22.39,0,0,0,1.47-1.9c.29-.4.53-.45,1-.25,2.27,1,4.56,1.92,7,2.94-.63.92-1.21,1.84-1.88,2.71a19.46,19.46,0,0,1-6.37,5.39,20.36,20.36,0,0,1-7.66,2.44,57.42,57.42,0,0,1-7.64.3,21.92,21.92,0,0,1-12.41-4.55A22.94,22.94,0,0,1,244,83.32a24.12,24.12,0,0,1,1.7-15.61,22.19,22.19,0,0,1,8.6-9.73,24.69,24.69,0,0,1,15.06-3.51,22.2,22.2,0,0,1,10,2.91A20.19,20.19,0,0,1,287,65.45a30.62,30.62,0,0,1,3.48,13.92c0,1.41,0,1.41-1.43,1.41H254.18c-.24,0-.47,0-.74,0M267,74.68h0c3.95,0,7.89,0,11.84,0,.58,0,.78-.17.68-.74-.22-1.27-.33-2.56-.64-3.8a10.93,10.93,0,0,0-5.72-7.37A13.19,13.19,0,0,0,266,61.44a11.32,11.32,0,0,0-6.79,2.67A14.25,14.25,0,0,0,254.41,74c-.06.6.23.65.7.65,3.95,0,7.89,0,11.84,0" transform="translate(0)" fill="#404040"/><path d="M419.1,80.82a16.22,16.22,0,0,0,2.95,7.92,14,14,0,0,0,10.37,6.14A13.79,13.79,0,0,0,444.75,90a22.39,22.39,0,0,0,1.47-1.9c.28-.4.53-.45,1-.25,2.26,1,4.55,1.92,7,2.94-.64.92-1.21,1.84-1.88,2.71A19.39,19.39,0,0,1,446,98.91a20.31,20.31,0,0,1-7.65,2.44,57.42,57.42,0,0,1-7.64.3,21.92,21.92,0,0,1-12.41-4.55,22.94,22.94,0,0,1-8.63-13.78,24.05,24.05,0,0,1,1.7-15.61A22.23,22.23,0,0,1,419.94,58,24.72,24.72,0,0,1,435,54.47a22.2,22.2,0,0,1,10,2.91,20.23,20.23,0,0,1,7.62,8.07,30.51,30.51,0,0,1,3.49,13.92c0,1.41,0,1.41-1.43,1.41H419.84c-.23,0-.46,0-.74,0m13.52-6.14h0c3.95,0,7.89,0,11.84,0,.58,0,.77-.17.68-.74-.23-1.27-.33-2.56-.64-3.8a11,11,0,0,0-5.72-7.37,13.21,13.21,0,0,0-7.14-1.33,11.35,11.35,0,0,0-6.79,2.67A14.33,14.33,0,0,0,420.07,74c-.06.6.24.65.71.65,4,0,7.89,0,11.84,0" transform="translate(0)" fill="#404040"/><path d="M332,91.68s-.65,8,3.84,9.36c2.68.8,6.87,0,6.87,0V92.88s-3.22.73-3.22-4.79V56.3c0-.64-.15-.88-.84-.87-2.53,0-5.07,0-7.6,0-.62,0-.81.16-.81.81,0,7.22,0,14.44,0,21.65a23.41,23.41,0,0,1-.77,6.61,13.45,13.45,0,0,1-3.54,6.27c-2.66,2.51-5.93,3.06-9.4,2.56a7.91,7.91,0,0,1-5.65-3.46,14.5,14.5,0,0,1-2.34-8.21c0-8.45,0-16.91,0-25.36,0-.66-.15-.88-.84-.87-2.56,0-5.12,0-7.68,0-.59,0-.84.12-.83.8q0,13.82,0,27.65a25.78,25.78,0,0,0,1.2,8.22,13.22,13.22,0,0,0,5,6.9,16.89,16.89,0,0,0,10,2.7,17.35,17.35,0,0,0,6.93-1.41,19.14,19.14,0,0,0,6.75-5Z" transform="translate(0)" fill="#404040"/><path d="M566.3,101.47a54.79,54.79,0,0,1-5.45-.67,20.8,20.8,0,0,1-11.47-6.46,22.52,22.52,0,0,1-4.7-8.5,27.1,27.1,0,0,1-1-10.89,25.35,25.35,0,0,1,2-7.9,20.39,20.39,0,0,1,6.15-7.87,23.4,23.4,0,0,1,9-4.19,27.61,27.61,0,0,1,9.55-.46,23.54,23.54,0,0,1,8.17,2.39,20,20,0,0,1,7.4,6.52,22.62,22.62,0,0,1,3.38,7.61,26.12,26.12,0,0,1,.24,11.57,26.51,26.51,0,0,1-2.6,7.47,20.94,20.94,0,0,1-5.19,6.28,22,22,0,0,1-8.94,4.34,29,29,0,0,1-6.51.76M580.79,78l-.17,0a20.33,20.33,0,0,0-1.37-8A12.32,12.32,0,0,0,573,63.17,14.73,14.73,0,0,0,564.8,62a12.24,12.24,0,0,0-6.5,2.57,14.44,14.44,0,0,0-5,9.39,25.09,25.09,0,0,0,.23,9.3,14.46,14.46,0,0,0,2.83,6.22,12,12,0,0,0,6.91,4.23,16.87,16.87,0,0,0,7,.06,11.6,11.6,0,0,0,6-3.15A13.81,13.81,0,0,0,580,83.64c.41-1.84.52-3.75.77-5.62" transform="translate(0)" fill="#404040"/><path d="M598.54,55.48h9v9.19c.17-.16.29-.23.34-.33a18.46,18.46,0,0,1,9.87-8.7,11.34,11.34,0,0,1,5.28-.8l.42,0c.91.14,1,.23.9,1.13q-.32,3.75-.62,7.5c0,.15-.05.31-.08.53-.32-.06-.61-.15-.91-.18-4.54-.45-8.57.54-11.54,4.27a14.09,14.09,0,0,0-2.48,5.28,37.34,37.34,0,0,0-1,9.77c0,5.48,0,11,0,16.46,0,.54-.15.7-.69.69-2.64,0-5.27,0-7.9,0-.51,0-.63-.14-.63-.66,0-3.88,0-7.76,0-11.63q0-16.17,0-32.33a1.59,1.59,0,0,1,0-.23" transform="translate(0)" fill="#404040"/><path d="M489,93.72a16.87,16.87,0,0,1-7-.06,11.91,11.91,0,0,1-6.9-4.23,14.55,14.55,0,0,1-2.84-6.22,25.09,25.09,0,0,1-.22-9.3,14.44,14.44,0,0,1,5-9.39,12.24,12.24,0,0,1,6.5-2.57,13.56,13.56,0,0,1,8.17,1.22,11.59,11.59,0,0,1,4.78,5.21l8.72-2.85c-.81-3.43-4.95-7.05-8-8.61A23.49,23.49,0,0,0,489,54.53a27.84,27.84,0,0,0-9.55.46,23.4,23.4,0,0,0-9,4.19,20.3,20.3,0,0,0-6.15,7.87,25.35,25.35,0,0,0-2,7.9,27.09,27.09,0,0,0,1,10.89,22.79,22.79,0,0,0,4.7,8.5,20.79,20.79,0,0,0,11.48,6.46,54.79,54.79,0,0,0,5.45.67,46,46,0,0,0,6.51-.76c6.62-1,12.71-8.09,13.5-10.56l-8.16-2.88c-.07,1.28-5.5,6-7.84,6.45" transform="translate(0)" fill="#404040"/><path d="M537.16,91.06a16.64,16.64,0,0,1-7.56,2c-4.47,0-4.11-4.57-4.12-6.35-.06-7.62,0-15.88,0-23.49,0-.86,0-.86.89-.86h9.39V54.8c-5.46,0-7.55,0-9.64,0-.5,0-.65-.14-.65-.66,0-2.92,0-5.19,0-14.39h-9.26c0,9.2,0,11.46,0,14.38,0,.49-.12.69-.65.67-1.28,0-2.57,0-3.86,0h-2.3v7.6h6c.85,0,.85,0,.85.86,0,7.87,0,16.4,0,24.28a22.93,22.93,0,0,0,.76,6.84,8.3,8.3,0,0,0,4,5.12,14.52,14.52,0,0,0,7.4,1.52,22.35,22.35,0,0,0,7.58-1.23,7.16,7.16,0,0,0,2.68-1.56Z" transform="translate(0)" fill="#404040"/><path d="M125.92,30.52H39.61A12.09,12.09,0,0,0,27.52,42.61V55l12.37,7.48V42.86h85.75v86.33H39.89V76.29L27.52,68.86v60.57a12.09,12.09,0,0,0,12.09,12.09h86.31A12.09,12.09,0,0,0,138,129.43V42.61a12.09,12.09,0,0,0-12.1-12.09" transform="translate(0)" fill="#42a342"/><path d="M65.28,14.89H8a8,8,0,0,0-8,8V80.5a8,8,0,0,0,8,8H65.28a8,8,0,0,0,8-8V57.91L45.52,79.67l-18-10.81v9.51H10.17V25.05h53v5.47H39.61A12.09,12.09,0,0,0,27.52,42.61V55L45,65.52,73.3,43.67V22.91a8,8,0,0,0-8-8" transform="translate(0)" fill="#007300"/><path d="M181.31,120v9.62h10.43V131H181.31V141.5h-1.67V118.62h13.71V120Z" transform="translate(0)" fill="#445016"/><path d="M209.65,125.41V141.5h-.86a.44.44,0,0,1-.47-.42l-.14-2.39a9.09,9.09,0,0,1-2.58,2.23,6.44,6.44,0,0,1-3.26.84,6,6,0,0,1-2.34-.42,4.26,4.26,0,0,1-1.67-1.21,5.51,5.51,0,0,1-1-1.91,8.54,8.54,0,0,1-.34-2.52V125.41h1.55V135.7a5.52,5.52,0,0,0,1,3.55,3.82,3.82,0,0,0,3.15,1.28,5.71,5.71,0,0,0,2.93-.8,8.1,8.1,0,0,0,2.44-2.22v-12.1Z" transform="translate(0)" fill="#445016"/><path d="M216.64,118V141.5h-1.56V118Z" transform="translate(0)" fill="#445016"/><path d="M223.78,118V141.5h-1.55V118Z" transform="translate(0)" fill="#445016"/><path d="M251.24,140.1v1.4h-12.5V118.62h1.66V140.1Z" transform="translate(0)" fill="#445016"/><path d="M256.75,119.87a1.25,1.25,0,0,1-.12.54,1.55,1.55,0,0,1-.32.44,1.39,1.39,0,0,1-.45.31,1.26,1.26,0,0,1-.55.11,1.29,1.29,0,0,1-.55-.11,1.39,1.39,0,0,1-.45-.31,1.52,1.52,0,0,1-.31-.44,1.41,1.41,0,0,1-.11-.54,1.51,1.51,0,0,1,.11-.56,1.49,1.49,0,0,1,.31-.46,1.57,1.57,0,0,1,.45-.31,1.46,1.46,0,0,1,.55-.11,1.42,1.42,0,0,1,.55.11,1.57,1.57,0,0,1,.45.31,1.52,1.52,0,0,1,.32.46A1.34,1.34,0,0,1,256.75,119.87Zm-.66,5.54V141.5h-1.54V125.41Z" transform="translate(0)" fill="#445016"/><path d="M262.52,141.5V127.09l-2.26-.14c-.3,0-.45-.17-.45-.4v-.64h2.71v-2a7.42,7.42,0,0,1,.36-2.42,4.71,4.71,0,0,1,1-1.74,4.12,4.12,0,0,1,1.55-1,5.62,5.62,0,0,1,2-.35,5.83,5.83,0,0,1,1,.09,4.45,4.45,0,0,1,.91.25l-.05.74a.23.23,0,0,1-.13.19.66.66,0,0,1-.3,0,3.64,3.64,0,0,1-.5,0c-.21,0-.45,0-.72,0a4.34,4.34,0,0,0-1.46.24,3,3,0,0,0-1.16.75,3.65,3.65,0,0,0-.75,1.35,7.1,7.1,0,0,0-.26,2.05v2h5.22v1.15h-5.17V141.5Z" transform="translate(0)" fill="#445016"/><path d="M273.13,132.82v.31a10.89,10.89,0,0,0,.42,3.18,6.48,6.48,0,0,0,1.2,2.31,4.83,4.83,0,0,0,1.87,1.39,6.1,6.1,0,0,0,2.46.47,7.62,7.62,0,0,0,2.1-.26,7.73,7.73,0,0,0,2.46-1.2,1.09,1.09,0,0,1,.52-.27.38.38,0,0,1,.32.16l.42.52a4.21,4.21,0,0,1-1,.91,7.27,7.27,0,0,1-1.42.72,9.39,9.39,0,0,1-1.68.47,9.16,9.16,0,0,1-1.8.18,7.72,7.72,0,0,1-3-.57,6.28,6.28,0,0,1-2.33-1.68,7.38,7.38,0,0,1-1.49-2.69,11.3,11.3,0,0,1-.53-3.64,9.94,9.94,0,0,1,.49-3.2,7.42,7.42,0,0,1,1.43-2.52,6.46,6.46,0,0,1,2.28-1.66,7.46,7.46,0,0,1,3.06-.59,6.68,6.68,0,0,1,2.52.46,5.75,5.75,0,0,1,2,1.37,6.43,6.43,0,0,1,1.35,2.21,8.42,8.42,0,0,1,.5,3,.92.92,0,0,1-.1.49.37.37,0,0,1-.32.13Zm10.74-1a7,7,0,0,0-.37-2.32,5,5,0,0,0-1-1.74,4.71,4.71,0,0,0-1.58-1.09,5.25,5.25,0,0,0-2-.38,6.08,6.08,0,0,0-2.24.39,4.89,4.89,0,0,0-1.7,1.12,5.47,5.47,0,0,0-1.16,1.74,8.28,8.28,0,0,0-.58,2.28Z" transform="translate(0)" fill="#445016"/><path d="M300.26,127.56a1,1,0,0,1-.15.14.32.32,0,0,1-.2.06.77.77,0,0,1-.44-.22,4.77,4.77,0,0,0-.74-.48,6.43,6.43,0,0,0-1.18-.47,5.61,5.61,0,0,0-1.7-.22,5.86,5.86,0,0,0-2.47.49,5,5,0,0,0-1.82,1.42,6.24,6.24,0,0,0-1.12,2.23,10.27,10.27,0,0,0-.38,2.94,10.61,10.61,0,0,0,.39,3,6.35,6.35,0,0,0,1.13,2.2,4.7,4.7,0,0,0,1.76,1.37,5.56,5.56,0,0,0,2.3.47,5.83,5.83,0,0,0,1.95-.28,6.54,6.54,0,0,0,1.29-.59,5.69,5.69,0,0,0,.8-.6.77.77,0,0,1,.48-.28.44.44,0,0,1,.33.16l.4.52a4.53,4.53,0,0,1-.94.91,6.49,6.49,0,0,1-1.27.73,8,8,0,0,1-1.55.47,8.85,8.85,0,0,1-1.74.17,6.77,6.77,0,0,1-2.8-.56,6,6,0,0,1-2.18-1.61,7.57,7.57,0,0,1-1.43-2.6,12,12,0,0,1,0-6.85,7.43,7.43,0,0,1,1.42-2.62,6.47,6.47,0,0,1,2.29-1.71,7.55,7.55,0,0,1,3.1-.6,7.14,7.14,0,0,1,2.78.5,6.85,6.85,0,0,1,2.12,1.35Z" transform="translate(0)" fill="#445016"/><path d="M317.69,125.41l-9.25,21.27a1.1,1.1,0,0,1-.25.37.64.64,0,0,1-.44.14h-1.1l2.83-6.29-6.81-15.49H304a.56.56,0,0,1,.39.13.58.58,0,0,1,.19.26L310,138.32c.06.16.12.32.17.49s.09.34.13.51l.17-.51c.06-.17.12-.33.19-.49L316,125.8a.71.71,0,0,1,.23-.28.52.52,0,0,1,.32-.11Z" transform="translate(0)" fill="#445016"/><path d="M331.73,127.56l-.16.14a.3.3,0,0,1-.2.06.8.8,0,0,1-.44-.22,4.77,4.77,0,0,0-.74-.48,6,6,0,0,0-1.17-.47,5.68,5.68,0,0,0-1.71-.22,5.78,5.78,0,0,0-2.46.49,4.87,4.87,0,0,0-1.82,1.42,6.25,6.25,0,0,0-1.13,2.23,11.54,11.54,0,0,0,0,6,6.34,6.34,0,0,0,1.12,2.2,4.73,4.73,0,0,0,1.77,1.37,5.52,5.52,0,0,0,2.29.47,5.75,5.75,0,0,0,1.95-.28,6.54,6.54,0,0,0,1.29-.59,5.69,5.69,0,0,0,.8-.6.81.81,0,0,1,.49-.28.4.4,0,0,1,.32.16l.41.52a4.53,4.53,0,0,1-.94.91,6.88,6.88,0,0,1-1.28.73,7.91,7.91,0,0,1-1.54.47,9,9,0,0,1-1.74.17,6.78,6.78,0,0,1-2.81-.56,6.16,6.16,0,0,1-2.18-1.61,7.56,7.56,0,0,1-1.42-2.6,12.1,12.1,0,0,1,0-6.85,7.45,7.45,0,0,1,1.43-2.62,6.3,6.3,0,0,1,2.29-1.71,7.5,7.5,0,0,1,3.09-.6,7.11,7.11,0,0,1,2.78.5,6.74,6.74,0,0,1,2.12,1.35Z" transform="translate(0)" fill="#445016"/><path d="M337.85,118V141.5H336.3V118Z" transform="translate(0)" fill="#445016"/><path d="M343.85,132.82v.31a10.89,10.89,0,0,0,.42,3.18,6.48,6.48,0,0,0,1.2,2.31,4.91,4.91,0,0,0,1.87,1.39,6.13,6.13,0,0,0,2.46.47,7.75,7.75,0,0,0,2.11-.26,7.93,7.93,0,0,0,1.49-.6,7.52,7.52,0,0,0,1-.6,1.09,1.09,0,0,1,.52-.27.38.38,0,0,1,.32.16l.42.52a4.35,4.35,0,0,1-1,.91,7.36,7.36,0,0,1-1.43.72,9.39,9.39,0,0,1-1.68.47,9.16,9.16,0,0,1-1.8.18,7.72,7.72,0,0,1-3-.57,6.36,6.36,0,0,1-2.33-1.68,7.69,7.69,0,0,1-1.49-2.69,11.58,11.58,0,0,1-.53-3.64,9.94,9.94,0,0,1,.5-3.2,7.24,7.24,0,0,1,1.42-2.52,6.46,6.46,0,0,1,2.28-1.66,7.46,7.46,0,0,1,3.06-.59,6.77,6.77,0,0,1,2.53.46,5.93,5.93,0,0,1,2,1.37,6.43,6.43,0,0,1,1.35,2.21,8.43,8.43,0,0,1,.49,3,.83.83,0,0,1-.1.49.36.36,0,0,1-.32.13Zm10.74-1a7,7,0,0,0-.36-2.32,5.18,5.18,0,0,0-1-1.74,4.61,4.61,0,0,0-1.58-1.09,5.25,5.25,0,0,0-2-.38,6,6,0,0,0-2.23.39,4.84,4.84,0,0,0-1.71,1.12,5.44,5.44,0,0,0-1.15,1.74,8,8,0,0,0-.59,2.28Z" transform="translate(0)" fill="#445016"/><path d="M386.18,137.65a.38.38,0,0,1,.28.12l.65.69a11.18,11.18,0,0,1-1.55,1.37,9,9,0,0,1-1.83,1,10.69,10.69,0,0,1-2.18.67,14,14,0,0,1-2.61.23,11.25,11.25,0,0,1-4.36-.83,9.81,9.81,0,0,1-3.4-2.36,10.76,10.76,0,0,1-2.21-3.7,14.13,14.13,0,0,1-.78-4.82,13.38,13.38,0,0,1,.81-4.75,10.79,10.79,0,0,1,2.26-3.69,10.08,10.08,0,0,1,3.49-2.4,11.71,11.71,0,0,1,4.5-.85,11.14,11.14,0,0,1,4.15.73,11.33,11.33,0,0,1,3.3,2l-.5.73a.45.45,0,0,1-.4.2,1.29,1.29,0,0,1-.63-.36,7.67,7.67,0,0,0-1.22-.78,10,10,0,0,0-1.93-.79,10.74,10.74,0,0,0-6.56.36,8.28,8.28,0,0,0-3,2,9.34,9.34,0,0,0-1.93,3.24,12.28,12.28,0,0,0-.7,4.28,12.47,12.47,0,0,0,.7,4.34,9.49,9.49,0,0,0,1.94,3.22,8.08,8.08,0,0,0,2.9,2,9.19,9.19,0,0,0,3.61.71,14.21,14.21,0,0,0,2.19-.16,8.49,8.49,0,0,0,1.77-.49,8.65,8.65,0,0,0,1.51-.79,11.19,11.19,0,0,0,1.37-1.1l.16-.11A.53.53,0,0,1,386.18,137.65Z" transform="translate(0)" fill="#445016"/><path d="M397.18,125.16a7.86,7.86,0,0,1,3.1.58,6.46,6.46,0,0,1,2.3,1.68A7.48,7.48,0,0,1,404,130a12.15,12.15,0,0,1,0,6.83,7.52,7.52,0,0,1-1.43,2.6,6.21,6.21,0,0,1-2.3,1.67,8.57,8.57,0,0,1-6.2,0,6.24,6.24,0,0,1-2.31-1.67,7.38,7.38,0,0,1-1.44-2.6,12.15,12.15,0,0,1,0-6.83,7.34,7.34,0,0,1,1.44-2.61,6.5,6.5,0,0,1,2.31-1.68A7.79,7.79,0,0,1,397.18,125.16Zm0,15.34a5.92,5.92,0,0,0,2.51-.49,4.73,4.73,0,0,0,1.8-1.42,6,6,0,0,0,1.07-2.22,12,12,0,0,0,0-5.83,6.22,6.22,0,0,0-1.07-2.24,4.75,4.75,0,0,0-1.8-1.43,6.55,6.55,0,0,0-5,0,4.75,4.75,0,0,0-1.8,1.43,6.4,6.4,0,0,0-1.08,2.24,11.67,11.67,0,0,0,0,5.83,6.22,6.22,0,0,0,1.08,2.22,4.73,4.73,0,0,0,1.8,1.42A5.92,5.92,0,0,0,397.18,140.5Z" transform="translate(0)" fill="#445016"/><path d="M410.32,128.23A9.22,9.22,0,0,1,412.9,126a6.34,6.34,0,0,1,3.26-.84,5.92,5.92,0,0,1,2.34.42,4.26,4.26,0,0,1,1.67,1.21,5.27,5.27,0,0,1,1,1.91,8.49,8.49,0,0,1,.34,2.52V141.5H420V131.22a5.52,5.52,0,0,0-1-3.55,3.8,3.8,0,0,0-3.16-1.29,5.74,5.74,0,0,0-2.93.8,8.37,8.37,0,0,0-2.43,2.23V141.5h-1.56V125.41h.86a.43.43,0,0,1,.47.41Z" transform="translate(0)" fill="#445016"/><path d="M431,141.76a3.48,3.48,0,0,1-2.55-.9,3.8,3.8,0,0,1-.91-2.8v-11h-2.32A.46.46,0,0,1,425,127a.38.38,0,0,1-.11-.28v-.6l2.75-.19.39-5.76a.58.58,0,0,1,.13-.26.34.34,0,0,1,.27-.11h.73v6.14h5.08v1.15h-5.08V138a3.26,3.26,0,0,0,.17,1.14,2,2,0,0,0,.47.78,1.69,1.69,0,0,0,.7.45,2.49,2.49,0,0,0,.87.15,2.77,2.77,0,0,0,1-.17,4,4,0,0,0,.72-.37,4.34,4.34,0,0,0,.5-.37.53.53,0,0,1,.31-.17.34.34,0,0,1,.26.16l.42.68a4.59,4.59,0,0,1-1.56,1.09A5,5,0,0,1,431,141.76Z" transform="translate(0)" fill="#445016"/><path d="M437.26,127.69a9.64,9.64,0,0,1,2.65-1.91,7.42,7.42,0,0,1,3.15-.64,5.86,5.86,0,0,1,2.27.41,4.27,4.27,0,0,1,1.61,1.18,5.29,5.29,0,0,1,1,1.86,8.41,8.41,0,0,1,.32,2.43V141.5h-.61a.56.56,0,0,1-.6-.45l-.23-2.07a16.8,16.8,0,0,1-1.31,1.16,8.14,8.14,0,0,1-1.37.88,7.38,7.38,0,0,1-1.54.55,7.86,7.86,0,0,1-1.81.19,5.39,5.39,0,0,1-1.6-.24,3.86,3.86,0,0,1-1.38-.75,3.59,3.59,0,0,1-1-1.28,4.47,4.47,0,0,1-.36-1.88,3.37,3.37,0,0,1,.58-1.9,4.84,4.84,0,0,1,1.82-1.52,12.28,12.28,0,0,1,3.2-1,27.29,27.29,0,0,1,4.68-.45V131a5.39,5.39,0,0,0-1-3.43,3.46,3.46,0,0,0-2.86-1.21,5.33,5.33,0,0,0-2,.33,6.82,6.82,0,0,0-1.38.71,8.3,8.3,0,0,0-.92.71,1,1,0,0,1-.6.32.43.43,0,0,1-.29-.08.67.67,0,0,1-.2-.21Zm9.46,6a30.79,30.79,0,0,0-4,.37,11.19,11.19,0,0,0-2.74.77,4.19,4.19,0,0,0-1.59,1.15,2.48,2.48,0,0,0-.52,1.53,3.33,3.33,0,0,0,.27,1.4,2.71,2.71,0,0,0,.71,1,2.94,2.94,0,0,0,1,.56,4.07,4.07,0,0,0,1.21.17,6.6,6.6,0,0,0,1.72-.2,6.23,6.23,0,0,0,1.46-.56,7.17,7.17,0,0,0,1.25-.87c.39-.33.77-.69,1.15-1.08Z" transform="translate(0)" fill="#445016"/><path d="M455.74,119.87a1.25,1.25,0,0,1-.12.54,1.55,1.55,0,0,1-.32.44,1.29,1.29,0,0,1-.45.31,1.26,1.26,0,0,1-.55.11,1.29,1.29,0,0,1-.55-.11,1.39,1.39,0,0,1-.45-.31,1.52,1.52,0,0,1-.31-.44,1.41,1.41,0,0,1-.11-.54,1.51,1.51,0,0,1,.11-.56,1.49,1.49,0,0,1,.31-.46,1.57,1.57,0,0,1,.45-.31,1.46,1.46,0,0,1,.55-.11,1.42,1.42,0,0,1,.55.11,1.44,1.44,0,0,1,.45.31,1.52,1.52,0,0,1,.32.46A1.34,1.34,0,0,1,455.74,119.87Zm-.66,5.54V141.5h-1.54V125.41Z" transform="translate(0)" fill="#445016"/><path d="M462,128.23a9,9,0,0,1,2.58-2.23,6.34,6.34,0,0,1,3.26-.84,5.92,5.92,0,0,1,2.34.42,4.26,4.26,0,0,1,1.67,1.21,5.43,5.43,0,0,1,1,1.91,8.49,8.49,0,0,1,.34,2.52V141.5h-1.55V131.22a5.52,5.52,0,0,0-1-3.55,3.8,3.8,0,0,0-3.15-1.29,5.77,5.77,0,0,0-2.94.8,8.37,8.37,0,0,0-2.43,2.23V141.5h-1.55V125.41h.86a.42.42,0,0,1,.46.41Z" transform="translate(0)" fill="#445016"/><path d="M478.9,132.82v.31a10.56,10.56,0,0,0,.42,3.18,6.63,6.63,0,0,0,1.19,2.31,4.87,4.87,0,0,0,1.88,1.39,6.06,6.06,0,0,0,2.46.47,7.73,7.73,0,0,0,2.1-.26,7.93,7.93,0,0,0,1.49-.6,6.87,6.87,0,0,0,1-.6,1.09,1.09,0,0,1,.52-.27.41.41,0,0,1,.33.16l.42.52a4.21,4.21,0,0,1-1,.91,7.56,7.56,0,0,1-1.42.72,9.74,9.74,0,0,1-1.69.47,9,9,0,0,1-1.8.18,7.72,7.72,0,0,1-3-.57,6.36,6.36,0,0,1-2.33-1.68,7.69,7.69,0,0,1-1.49-2.69,11.58,11.58,0,0,1-.53-3.64,9.94,9.94,0,0,1,.5-3.2,7.4,7.4,0,0,1,1.42-2.52,6.46,6.46,0,0,1,2.28-1.66,7.47,7.47,0,0,1,3.07-.59,6.76,6.76,0,0,1,2.52.46,5.84,5.84,0,0,1,2,1.37,6.43,6.43,0,0,1,1.35,2.21,8.43,8.43,0,0,1,.49,3,.83.83,0,0,1-.1.49.36.36,0,0,1-.32.13Zm10.73-1a7,7,0,0,0-.36-2.32,5,5,0,0,0-1-1.74,4.61,4.61,0,0,0-1.58-1.09,5.25,5.25,0,0,0-2-.38,6,6,0,0,0-2.23.39,4.84,4.84,0,0,0-1.71,1.12,5.44,5.44,0,0,0-1.15,1.74,7.94,7.94,0,0,0-.58,2.28Z" transform="translate(0)" fill="#445016"/><path d="M496.68,129.29a10.17,10.17,0,0,1,.85-1.75,5.41,5.41,0,0,1,1.1-1.3,4.44,4.44,0,0,1,1.39-.82,4.87,4.87,0,0,1,1.71-.28,5.33,5.33,0,0,1,1,.09,2.51,2.51,0,0,1,.86.31l-.13,1.07a.32.32,0,0,1-.31.26,2.69,2.69,0,0,1-.59-.11,3.66,3.66,0,0,0-1-.12,4.47,4.47,0,0,0-1.66.29,3.73,3.73,0,0,0-1.29.84,5.5,5.5,0,0,0-1,1.4,13.4,13.4,0,0,0-.79,1.92V141.5h-1.55V125.41H496a.5.5,0,0,1,.39.12.58.58,0,0,1,.15.38Z" transform="translate(0)" fill="#445016"/><path d="M527.26,121.4a.46.46,0,0,1-.42.28.92.92,0,0,1-.54-.3,7.3,7.3,0,0,0-.9-.66,6.5,6.5,0,0,0-1.42-.67,6,6,0,0,0-2.09-.31,6.37,6.37,0,0,0-2.19.35,4.68,4.68,0,0,0-1.59,1,4.22,4.22,0,0,0-1,1.43,4.43,4.43,0,0,0-.33,1.69,3.56,3.56,0,0,0,.49,1.93,4.36,4.36,0,0,0,1.31,1.29,8.21,8.21,0,0,0,1.83.9l2.11.72c.72.24,1.43.5,2.11.78a7.75,7.75,0,0,1,1.84,1.08,4.92,4.92,0,0,1,1.3,1.59,5,5,0,0,1,.49,2.35,7.37,7.37,0,0,1-.49,2.71,6.43,6.43,0,0,1-1.43,2.21,6.8,6.8,0,0,1-2.3,1.48,8.32,8.32,0,0,1-3.1.54,8.84,8.84,0,0,1-3.9-.8,9.07,9.07,0,0,1-2.86-2.19l.45-.71a.57.57,0,0,1,.45-.24.64.64,0,0,1,.38.19l.55.48c.21.19.47.39.77.61a5.8,5.8,0,0,0,1.05.61,7.41,7.41,0,0,0,1.38.48,7.16,7.16,0,0,0,1.76.2,6.62,6.62,0,0,0,2.43-.42,5.29,5.29,0,0,0,1.8-1.12,4.76,4.76,0,0,0,1.12-1.69,5.59,5.59,0,0,0,.39-2.09,3.77,3.77,0,0,0-.49-2,4.31,4.31,0,0,0-1.31-1.31,8.4,8.4,0,0,0-1.83-.88c-.69-.24-1.39-.47-2.11-.7s-1.43-.48-2.11-.76a7.27,7.27,0,0,1-1.84-1.07,4.9,4.9,0,0,1-1.3-1.64,5.36,5.36,0,0,1-.49-2.44,5.82,5.82,0,0,1,.44-2.22,5.44,5.44,0,0,1,1.27-1.88,6.26,6.26,0,0,1,2.08-1.31,7.58,7.58,0,0,1,2.82-.5,8.53,8.53,0,0,1,3.2.57,7.57,7.57,0,0,1,2.57,1.73Z" transform="translate(0)" fill="#445016"/><path d="M533.27,132.82v.31a10.89,10.89,0,0,0,.42,3.18,6.48,6.48,0,0,0,1.2,2.31,4.91,4.91,0,0,0,1.87,1.39,6.13,6.13,0,0,0,2.46.47,7.62,7.62,0,0,0,2.1-.26,8.05,8.05,0,0,0,1.5-.6,8.32,8.32,0,0,0,1-.6,1.09,1.09,0,0,1,.52-.27.38.38,0,0,1,.32.16l.42.52a4.35,4.35,0,0,1-1,.91,7.65,7.65,0,0,1-1.43.72,9.39,9.39,0,0,1-1.68.47,9.16,9.16,0,0,1-1.8.18,7.72,7.72,0,0,1-3-.57,6.36,6.36,0,0,1-2.33-1.68,7.69,7.69,0,0,1-1.49-2.69,11.58,11.58,0,0,1-.53-3.64,9.94,9.94,0,0,1,.49-3.2,7.42,7.42,0,0,1,1.43-2.52,6.46,6.46,0,0,1,2.28-1.66,7.46,7.46,0,0,1,3.06-.59,6.68,6.68,0,0,1,2.52.46,5.75,5.75,0,0,1,2,1.37,6.3,6.3,0,0,1,1.36,2.21,8.66,8.66,0,0,1,.49,3,.83.83,0,0,1-.1.49.36.36,0,0,1-.32.13Zm10.74-1a6.76,6.76,0,0,0-.37-2.32,5,5,0,0,0-1-1.74,4.71,4.71,0,0,0-1.58-1.09,5.25,5.25,0,0,0-2-.38,6,6,0,0,0-2.23.39,4.84,4.84,0,0,0-1.71,1.12,5.64,5.64,0,0,0-1.16,1.74,8.28,8.28,0,0,0-.58,2.28Z" transform="translate(0)" fill="#445016"/><path d="M560.4,127.56a1,1,0,0,1-.15.14.32.32,0,0,1-.2.06.77.77,0,0,1-.44-.22,4.77,4.77,0,0,0-.74-.48,6.6,6.6,0,0,0-1.17-.47,5.68,5.68,0,0,0-1.71-.22,5.86,5.86,0,0,0-2.47.49,5,5,0,0,0-1.82,1.42,6.24,6.24,0,0,0-1.12,2.23,10.64,10.64,0,0,0-.38,2.94,10.25,10.25,0,0,0,.4,3,6.34,6.34,0,0,0,1.12,2.2,4.78,4.78,0,0,0,1.76,1.37,5.56,5.56,0,0,0,2.3.47,5.79,5.79,0,0,0,2-.28,6.54,6.54,0,0,0,1.29-.59,5.69,5.69,0,0,0,.8-.6.81.81,0,0,1,.49-.28.42.42,0,0,1,.32.16l.4.52a4.47,4.47,0,0,1-.93.91,6.88,6.88,0,0,1-1.28.73,8,8,0,0,1-1.55.47,8.83,8.83,0,0,1-1.73.17,6.78,6.78,0,0,1-2.81-.56,6.08,6.08,0,0,1-2.18-1.61,7.39,7.39,0,0,1-1.42-2.6,12.1,12.1,0,0,1,0-6.85,7.6,7.6,0,0,1,1.42-2.62,6.47,6.47,0,0,1,2.29-1.71,7.55,7.55,0,0,1,3.1-.6,7.14,7.14,0,0,1,2.78.5,6.85,6.85,0,0,1,2.12,1.35Z" transform="translate(0)" fill="#445016"/><path d="M577.32,125.41V141.5h-.86a.43.43,0,0,1-.47-.42l-.15-2.39a9,9,0,0,1-2.57,2.23,6.46,6.46,0,0,1-3.26.84,6.05,6.05,0,0,1-2.35-.42,4.23,4.23,0,0,1-1.66-1.21,5.35,5.35,0,0,1-1-1.91,8.54,8.54,0,0,1-.34-2.52V125.41h1.55V135.7a5.52,5.52,0,0,0,1,3.55,3.83,3.83,0,0,0,3.16,1.28,5.74,5.74,0,0,0,2.93-.8,8.19,8.19,0,0,0,2.43-2.22v-12.1Z" transform="translate(0)" fill="#445016"/><path d="M584.07,129.29a11,11,0,0,1,.85-1.75,5.65,5.65,0,0,1,1.1-1.3,4.55,4.55,0,0,1,1.39-.82,4.91,4.91,0,0,1,1.71-.28,5.52,5.52,0,0,1,1,.09,2.45,2.45,0,0,1,.85.31l-.13,1.07a.31.31,0,0,1-.3.26,2.6,2.6,0,0,1-.59-.11,3.79,3.79,0,0,0-1.05-.12,4.46,4.46,0,0,0-1.65.29,3.77,3.77,0,0,0-1.3.84,5.76,5.76,0,0,0-1,1.4,12.36,12.36,0,0,0-.78,1.92V141.5H582.6V125.41h.83a.54.54,0,0,1,.39.12.64.64,0,0,1,.14.38Z" transform="translate(0)" fill="#445016"/><path d="M596.41,119.87a1.25,1.25,0,0,1-.12.54,1.55,1.55,0,0,1-.32.44,1.29,1.29,0,0,1-.45.31,1.26,1.26,0,0,1-.55.11,1.29,1.29,0,0,1-.55-.11,1.39,1.39,0,0,1-.45-.31,1.52,1.52,0,0,1-.31-.44,1.41,1.41,0,0,1-.11-.54,1.51,1.51,0,0,1,.11-.56,1.49,1.49,0,0,1,.31-.46,1.57,1.57,0,0,1,.45-.31,1.46,1.46,0,0,1,.55-.11,1.42,1.42,0,0,1,.55.11,1.44,1.44,0,0,1,.45.31,1.52,1.52,0,0,1,.32.46A1.34,1.34,0,0,1,596.41,119.87Zm-.66,5.54V141.5h-1.54V125.41Z" transform="translate(0)" fill="#445016"/><path d="M605.63,141.76a3.48,3.48,0,0,1-2.55-.9,3.8,3.8,0,0,1-.91-2.8v-11h-2.31a.49.49,0,0,1-.3-.09.38.38,0,0,1-.11-.28v-.6l2.75-.19.39-5.76a.58.58,0,0,1,.13-.26.34.34,0,0,1,.27-.11h.73v6.14h5.08v1.15h-5.08V138a3.51,3.51,0,0,0,.17,1.14,2,2,0,0,0,.47.78,1.69,1.69,0,0,0,.7.45,2.5,2.5,0,0,0,.88.15,2.75,2.75,0,0,0,1-.17,4,4,0,0,0,.72-.37,5.78,5.78,0,0,0,.51-.37.49.49,0,0,1,.3-.17.33.33,0,0,1,.26.16l.42.68a4.59,4.59,0,0,1-1.56,1.09A4.92,4.92,0,0,1,605.63,141.76Z" transform="translate(0)" fill="#445016"/><path d="M625.31,125.41l-9.25,21.27a1.27,1.27,0,0,1-.25.37.69.69,0,0,1-.45.14h-1.1l2.83-6.29-6.81-15.49h1.28a.56.56,0,0,1,.39.13.52.52,0,0,1,.19.26l5.42,12.52c.06.16.12.32.17.49s.09.34.14.51c0-.17.11-.34.17-.51l.18-.49,5.35-12.52a.71.71,0,0,1,.23-.28.54.54,0,0,1,.32-.11Z" transform="translate(0)" fill="#445016"/></svg>
